<svg width="24" height="20" viewBox="0 0 24 20" fill="none" xmlns="http://www.w3.org/2000/svg">
<path d="M21.3334 17H19V6.79167L12 11.1667L5.00004 6.79167V17H2.66671V3H4.06671L12 7.95834L19.9334 3H21.3334V17ZM21.3334 0.666672H2.66671C1.37171 0.666672 0.333374 1.705 0.333374 3V17C0.333374 17.6188 0.579207 18.2123 1.01679 18.6499C1.45438 19.0875 2.04787 19.3333 2.66671 19.3333H21.3334C21.9522 19.3333 22.5457 19.0875 22.9833 18.6499C23.4209 18.2123 23.6667 17.6188 23.6667 17V3C23.6667 2.38117 23.4209 1.78767 22.9833 1.35009C22.5457 0.912504 21.9522 0.666672 21.3334 0.666672Z" fill="#F5F5F5"/>
</svg>
