<svg width="24" height="24" viewBox="0 0 24 24" fill="none" xmlns="http://www.w3.org/2000/svg">
<path d="M19.4444 4H15.5556C15.4449 4 15 4.286 15 4.64V19.36C15 19.714 15.4449 20 15.5556 20H19.4444C19.5551 20 20 19.714 20 19.36V4.64C20 4.286 19.5551 4 19.4444 4ZM18.3333 18.56H16.6667V5.44H18.3333V18.56Z" fill="#6F9F07"/>
<path d="M13.4444 4H9.55556C9.44493 4 9 4.286 9 4.64V19.36C9 19.714 9.44493 20 9.55556 20H13.4444C13.5551 20 14 19.714 14 19.36V4.64C14 4.286 13.5551 4 13.4444 4ZM12.3333 18.56H10.6667V5.44H12.3333V18.56Z" fill="#6F9F07"/>
<path d="M7.44444 4H3.55556C3.44493 4 3 4.286 3 4.64V19.36C3 19.714 3.44493 20 3.55556 20H7.44444C7.55507 20 8 19.714 8 19.36V4.64C8 4.286 7.55507 4 7.44444 4ZM6.33333 18.56H4.66667V5.44H6.33333V18.56Z" fill="#6F9F07"/>
</svg>
