<svg width="24" height="19" viewBox="0 0 24 19" fill="none" xmlns="http://www.w3.org/2000/svg">
<path d="M23.25 2.61134C22.406 2.97806 21.513 3.21967 20.5992 3.32852C21.5595 2.7662 22.2817 1.87285 22.6303 0.816023C21.7224 1.34693 20.7307 1.71943 19.6978 1.91759C19.2629 1.46174 18.7397 1.0991 18.1603 0.851716C17.5808 0.604329 16.9571 0.477359 16.327 0.478524C13.7761 0.478524 11.7117 2.5129 11.7117 5.02071C11.7099 5.36954 11.7499 5.71733 11.8308 6.05665C10.0016 5.9709 8.2104 5.50427 6.57187 4.68661C4.93333 3.86896 3.48351 2.71829 2.31516 1.30821C1.90527 1.9992 1.6885 2.78761 1.6875 3.59102C1.6875 5.16602 2.50922 6.55821 3.75 7.37384C3.01487 7.35639 2.29481 7.16182 1.65094 6.80665V6.8629C1.65094 9.06602 3.24469 10.8988 5.35406 11.316C4.9574 11.4218 4.54864 11.4753 4.13812 11.4754C3.84683 11.4759 3.5562 11.4476 3.27047 11.391C3.85687 13.1957 5.56359 14.5082 7.58531 14.5457C5.94252 15.8118 3.9256 16.4961 1.85156 16.491C1.48341 16.4905 1.11561 16.4686 0.75 16.4254C2.85993 17.7727 5.31255 18.4853 7.81594 18.4785C16.3172 18.4785 20.9616 11.5551 20.9616 5.5504C20.9616 5.35352 20.9564 5.15665 20.947 4.96446C21.8485 4.32324 22.6283 3.52639 23.25 2.61134Z" fill="#F5F5F5"/>
</svg>
