<svg width="24" height="14" viewBox="0 0 24 14" fill="none" xmlns="http://www.w3.org/2000/svg">
<path fill-rule="evenodd" clip-rule="evenodd" d="M22.9554 1.1875C23.1223 0.65875 22.9554 0.274375 22.2171 0.274375H19.7623C19.1431 0.274375 18.8571 0.610937 18.6903 0.970937C18.6903 0.970937 17.4275 4.04594 15.664 6.03953C15.0921 6.61609 14.8301 6.80828 14.5203 6.80828C14.3534 6.80828 14.1387 6.61609 14.1387 6.08781V1.16266C14.1387 0.538281 13.9484 0.25 13.4239 0.25H9.56323C9.18167 0.25 8.94354 0.538281 8.94354 0.826563C8.94354 1.42703 9.82526 1.57141 9.92042 3.25281V6.90625C9.92042 7.69891 9.7798 7.84375 9.46761 7.84375C8.6337 7.84375 6.60823 4.74484 5.39323 1.21375C5.15698 0.514375 4.91698 0.25 4.2973 0.25H1.81901C1.10417 0.25 0.985107 0.586094 0.985107 0.946563C0.985107 1.59531 1.81901 4.86203 4.86917 9.18578C6.89464 12.1389 9.77792 13.7261 12.3753 13.7261C13.9484 13.7261 14.1387 13.3656 14.1387 12.7652V10.5311C14.1387 9.81062 14.2817 9.69062 14.7823 9.69062C15.1395 9.69062 15.7831 9.88234 17.2367 11.2998C18.9045 12.9813 19.1904 13.75 20.12 13.75H22.5743C23.2892 13.75 23.6229 13.3895 23.4321 12.693C23.2179 11.9964 22.4075 10.9877 21.3589 9.78672C20.787 9.11453 19.9292 8.36969 19.6671 8.00922C19.3099 7.52875 19.4051 7.33656 19.6671 6.90438C19.6432 6.90438 22.646 2.62844 22.9554 1.18563" fill="#F5F5F5"/>
</svg>
