<svg width="22" height="22" viewBox="0 0 22 22" fill="none" xmlns="http://www.w3.org/2000/svg">
<path fill-rule="evenodd" clip-rule="evenodd" d="M18.4405 4.03013C17.4697 3.05891 16.3165 2.28929 15.0471 1.76557C13.7777 1.24186 12.4172 0.974388 11.0441 0.978564C5.28125 0.978564 0.59 5.64638 0.587656 11.3848C0.585107 13.2121 1.06676 15.0074 1.98359 16.5879L0.5 21.9786L6.04297 20.5315C7.57729 21.3627 9.29484 21.7978 11.0398 21.7972H11.0441C16.8064 21.7972 21.4972 17.1289 21.5 11.3909C21.5035 10.0224 21.2348 8.6669 20.7095 7.40322C20.1843 6.13954 19.413 4.99294 18.4405 4.03013ZM11.0441 20.0408H11.0403C9.48471 20.0412 7.95739 19.6249 6.61719 18.8351L6.29984 18.6476L3.01062 19.5064L3.88859 16.3147L3.68187 15.9865C2.81206 14.6094 2.35121 13.0136 2.35297 11.3848C2.35297 6.61622 6.25344 2.73638 11.0473 2.73638C13.347 2.73227 15.5542 3.64178 17.1833 5.26487C18.8125 6.88796 19.7302 9.09169 19.7347 11.3914C19.7328 16.1604 15.8342 20.0408 11.0441 20.0408ZM15.8108 13.5631C15.5497 13.4328 14.2639 12.8037 14.0258 12.717C13.7877 12.6303 13.6119 12.5867 13.438 12.8473C13.2641 13.1079 12.763 13.6911 12.6106 13.8668C12.4583 14.0426 12.3059 14.0618 12.0448 13.9315C11.7838 13.8012 10.9414 13.527 9.94344 12.6411C9.16672 11.9515 8.64266 11.1003 8.49031 10.8401C8.33797 10.58 8.47391 10.4389 8.60469 10.3095C8.72234 10.1928 8.86578 10.0058 8.99656 9.85388C9.12734 9.702 9.17094 9.59325 9.25766 9.41981C9.34437 9.24638 9.30125 9.0945 9.23609 8.96466C9.17094 8.83481 8.64828 7.55466 8.43078 7.03388C8.21844 6.52669 8.00328 6.5956 7.84297 6.58763C7.69062 6.58013 7.51484 6.57825 7.34188 6.57825C7.20965 6.58169 7.07955 6.61236 6.9597 6.66833C6.83985 6.7243 6.73283 6.80438 6.64531 6.90356C6.40578 7.16419 5.73078 7.79419 5.73078 9.07294C5.73078 10.3517 6.66828 11.5892 6.79766 11.7626C6.92703 11.9361 8.63984 14.5625 11.2606 15.6889C11.7473 15.8973 12.2445 16.08 12.7503 16.2364C13.3761 16.4342 13.9456 16.4065 14.3956 16.3395C14.8977 16.265 15.9425 15.7104 16.1595 15.1029C16.3766 14.4954 16.377 13.9751 16.3119 13.8668C16.2467 13.7586 16.0723 13.6929 15.8108 13.5631Z" fill="#F5F5F5"/>
</svg>
